# xmcd
#
# Track frame offsets: 
#        150
#        20085
#        34997
#        55112
#        71650
#        88992
#        105155
#        124185
#        143270
#        158552
#        178415
#        200635
#
# Disc length: 2910 seconds
#
# Revision: 2
# Processed by: cddbd v1.4PL0 Copyright (c) Steve Scherf et al.
# Submitted via: ExactAudioCopy v0.90b4
#
DISCID=a50b5c0c
DTITLE=Jessica Simpson - Sweet Kisses
DYEAR=1999
DGENRE=Blues
TTITLE0=I Wanna Love You Forever
TTITLE1=I Think I'm In Love With You
TTITLE2=Where You Are
TTITLE3=Final Heartbreak
TTITLE4=Women In Me
TTITLE5=I've Got My Eyes On You
TTITLE6=Betcha She Don't Love You
TTITLE7=My Wonderful
TTITLE8=Sweet Kisses
TTITLE9=You Faith in Me
TTITLE10=Heart Of Innocence
TTITLE11=Did You Ever Love Somebody
EXTD=ID3G:   0
EXTT0=
EXTT1=
EXTT2=
EXTT3=
EXTT4=
EXTT5=
EXTT6=
EXTT7=
EXTT8=
EXTT9=
EXTT10=
EXTT11=
PLAYORDER=
